<mxfile host="Electron" modified="2023-04-27T15:14:36.818Z" agent="Mozilla/5.0 (Windows NT 10.0; Win64; x64) AppleWebKit/537.36 (KHTML, like Gecko) draw.io/21.2.1 Chrome/112.0.5615.87 Electron/24.1.2 Safari/537.36" etag="LndVH0qx9IXQ_W3xYuhc" version="21.2.1" type="device">
  <diagram name="Page-1" id="64c3da0e-402f-94eb-ee01-a36477274f13">
    <mxGraphModel dx="1654" dy="840" grid="1" gridSize="10" guides="1" tooltips="1" connect="1" arrows="1" fold="1" page="1" pageScale="1" pageWidth="1169" pageHeight="826" background="none" math="0" shadow="0">
      <root>
        <mxCell id="0" />
        <mxCell id="1" parent="0" />
        <mxCell id="2" value="GUIDE-ME" style="rounded=1;shadow=0;fontStyle=1;fontSize=24;fillStyle=cross-hatch;glass=0;fontFamily=Times New Roman;horizontal=1;verticalAlign=middle;whiteSpace=wrap;labelBackgroundColor=none;labelBorderColor=none;fillColor=#cdeb8b;strokeColor=#36393d;" parent="1" vertex="1">
          <mxGeometry x="550" y="40" width="340" height="60" as="geometry" />
        </mxCell>
        <mxCell id="TK28OSFd8yPCz7U0a2tl-239" style="edgeStyle=orthogonalEdgeStyle;shape=link;rounded=0;orthogonalLoop=1;jettySize=auto;html=1;exitX=0;exitY=0.5;exitDx=0;exitDy=0;entryX=0;entryY=0.5;entryDx=0;entryDy=0;" edge="1" parent="1" source="3" target="rDrohDCk9cXmUTMI032h-234">
          <mxGeometry relative="1" as="geometry">
            <mxPoint x="20" y="150" as="targetPoint" />
          </mxGeometry>
        </mxCell>
        <mxCell id="TK28OSFd8yPCz7U0a2tl-240" style="edgeStyle=orthogonalEdgeStyle;shape=link;rounded=0;orthogonalLoop=1;jettySize=auto;html=1;exitX=0;exitY=0.5;exitDx=0;exitDy=0;entryX=0;entryY=0.5;entryDx=0;entryDy=0;" edge="1" parent="1" source="3" target="rDrohDCk9cXmUTMI032h-235">
          <mxGeometry relative="1" as="geometry" />
        </mxCell>
        <mxCell id="TK28OSFd8yPCz7U0a2tl-242" style="edgeStyle=orthogonalEdgeStyle;shape=link;rounded=0;orthogonalLoop=1;jettySize=auto;html=1;exitX=0;exitY=0.5;exitDx=0;exitDy=0;entryX=0;entryY=0.5;entryDx=0;entryDy=0;" edge="1" parent="1" source="3" target="rDrohDCk9cXmUTMI032h-238">
          <mxGeometry relative="1" as="geometry" />
        </mxCell>
        <mxCell id="TK28OSFd8yPCz7U0a2tl-243" style="edgeStyle=orthogonalEdgeStyle;shape=link;rounded=0;orthogonalLoop=1;jettySize=auto;html=1;exitX=0;exitY=0.5;exitDx=0;exitDy=0;entryX=0;entryY=0.5;entryDx=0;entryDy=0;" edge="1" parent="1" source="3" target="rDrohDCk9cXmUTMI032h-237">
          <mxGeometry relative="1" as="geometry" />
        </mxCell>
        <mxCell id="TK28OSFd8yPCz7U0a2tl-244" style="edgeStyle=orthogonalEdgeStyle;rounded=0;orthogonalLoop=1;jettySize=auto;html=1;exitX=0;exitY=0.5;exitDx=0;exitDy=0;entryX=0;entryY=0.5;entryDx=0;entryDy=0;shape=link;" edge="1" parent="1" source="3" target="rDrohDCk9cXmUTMI032h-236">
          <mxGeometry relative="1" as="geometry" />
        </mxCell>
        <mxCell id="3" value="1. Proje Başlatma Aşaması" style="whiteSpace=wrap;rounded=1;shadow=1;fontStyle=1;fontSize=14;fillColor=#d5e8d4;strokeColor=#82b366;fillStyle=solid;" parent="1" vertex="1">
          <mxGeometry x="40" y="179.9999999999998" width="140" height="60" as="geometry" />
        </mxCell>
        <mxCell id="TK28OSFd8yPCz7U0a2tl-248" style="edgeStyle=orthogonalEdgeStyle;shape=link;rounded=0;orthogonalLoop=1;jettySize=auto;html=1;exitX=0;exitY=0.5;exitDx=0;exitDy=0;entryX=0;entryY=0.5;entryDx=0;entryDy=0;" edge="1" parent="1" source="6" target="133">
          <mxGeometry relative="1" as="geometry" />
        </mxCell>
        <mxCell id="TK28OSFd8yPCz7U0a2tl-249" style="edgeStyle=orthogonalEdgeStyle;shape=link;rounded=0;orthogonalLoop=1;jettySize=auto;html=1;exitX=0;exitY=0.5;exitDx=0;exitDy=0;entryX=0;entryY=0.5;entryDx=0;entryDy=0;" edge="1" parent="1" source="6" target="rDrohDCk9cXmUTMI032h-245">
          <mxGeometry relative="1" as="geometry" />
        </mxCell>
        <mxCell id="TK28OSFd8yPCz7U0a2tl-252" style="edgeStyle=orthogonalEdgeStyle;shape=link;rounded=0;orthogonalLoop=1;jettySize=auto;html=1;exitX=0;exitY=0.5;exitDx=0;exitDy=0;entryX=0;entryY=0.5;entryDx=0;entryDy=0;" edge="1" parent="1" source="6" target="rDrohDCk9cXmUTMI032h-244">
          <mxGeometry relative="1" as="geometry" />
        </mxCell>
        <mxCell id="TK28OSFd8yPCz7U0a2tl-253" style="edgeStyle=orthogonalEdgeStyle;shape=link;rounded=0;orthogonalLoop=1;jettySize=auto;html=1;exitX=0;exitY=0.5;exitDx=0;exitDy=0;entryX=0;entryY=0.5;entryDx=0;entryDy=0;" edge="1" parent="1" source="6" target="rDrohDCk9cXmUTMI032h-249">
          <mxGeometry relative="1" as="geometry" />
        </mxCell>
        <mxCell id="6" value="2. Planlama" style="whiteSpace=wrap;rounded=1;fillColor=#d5e8d4;strokeColor=#82b366;shadow=1;fontStyle=1;fontSize=14" parent="1" vertex="1">
          <mxGeometry x="280" y="179.9999999999998" width="140" height="60" as="geometry" />
        </mxCell>
        <mxCell id="TK28OSFd8yPCz7U0a2tl-255" style="edgeStyle=orthogonalEdgeStyle;shape=link;rounded=0;orthogonalLoop=1;jettySize=auto;html=1;exitX=0;exitY=0.5;exitDx=0;exitDy=0;entryX=0;entryY=0.5;entryDx=0;entryDy=0;" edge="1" parent="1" source="7" target="rDrohDCk9cXmUTMI032h-252">
          <mxGeometry relative="1" as="geometry" />
        </mxCell>
        <mxCell id="TK28OSFd8yPCz7U0a2tl-259" style="edgeStyle=orthogonalEdgeStyle;shape=link;rounded=0;orthogonalLoop=1;jettySize=auto;html=1;exitX=0;exitY=0.5;exitDx=0;exitDy=0;entryX=0;entryY=0.5;entryDx=0;entryDy=0;" edge="1" parent="1" source="7" target="rDrohDCk9cXmUTMI032h-256">
          <mxGeometry relative="1" as="geometry" />
        </mxCell>
        <mxCell id="TK28OSFd8yPCz7U0a2tl-263" style="edgeStyle=orthogonalEdgeStyle;shape=link;rounded=0;orthogonalLoop=1;jettySize=auto;html=1;exitX=0;exitY=0.5;exitDx=0;exitDy=0;entryX=0;entryY=0.5;entryDx=0;entryDy=0;" edge="1" parent="1" source="7" target="rDrohDCk9cXmUTMI032h-260">
          <mxGeometry relative="1" as="geometry" />
        </mxCell>
        <mxCell id="TK28OSFd8yPCz7U0a2tl-266" style="edgeStyle=orthogonalEdgeStyle;shape=link;rounded=0;orthogonalLoop=1;jettySize=auto;html=1;exitX=0;exitY=0.5;exitDx=0;exitDy=0;entryX=0;entryY=0.5;entryDx=0;entryDy=0;" edge="1" parent="1" source="7" target="rDrohDCk9cXmUTMI032h-263">
          <mxGeometry relative="1" as="geometry" />
        </mxCell>
        <mxCell id="7" value="3. Analiz" style="whiteSpace=wrap;rounded=1;fillColor=#d5e8d4;strokeColor=#82b366;shadow=1;fontStyle=1;fontSize=14" parent="1" vertex="1">
          <mxGeometry x="520" y="179.9999999999998" width="140" height="60" as="geometry" />
        </mxCell>
        <mxCell id="23" value="1.5.1. Fizibilite Alanlarının Değerlendirilmesi" style="whiteSpace=wrap;rounded=1;shadow=1;fontStyle=0;fillColor=#ffe6cc;strokeColor=#d79b00;" parent="1" vertex="1">
          <mxGeometry x="79.99999999999994" y="620.0000000000001" width="120" height="60" as="geometry" />
        </mxCell>
        <mxCell id="133" value="2.1. İş Paketlerinin Belirlenmesi" style="whiteSpace=wrap;rounded=1;fillColor=#dae8fc;strokeColor=#6c8ebf;shadow=1;" parent="1" vertex="1">
          <mxGeometry x="299.9999999999998" y="260.0000000000001" width="120" height="60" as="geometry" />
        </mxCell>
        <mxCell id="229" value="" style="edgeStyle=elbowEdgeStyle;elbow=vertical;rounded=0;fontColor=#000000;endArrow=none;endFill=0;strokeWidth=8;strokeColor=#003300;" parent="1" source="2" target="3" edge="1">
          <mxGeometry width="100" height="100" relative="1" as="geometry">
            <mxPoint x="540" y="140" as="sourcePoint" />
            <mxPoint x="640" y="40" as="targetPoint" />
          </mxGeometry>
        </mxCell>
        <mxCell id="231" value="" style="edgeStyle=elbowEdgeStyle;elbow=vertical;rounded=0;fontColor=#000000;endArrow=none;endFill=0;strokeWidth=8;strokeColor=#003300;" parent="1" source="2" target="6" edge="1">
          <mxGeometry width="100" height="100" relative="1" as="geometry">
            <mxPoint x="560" y="160" as="sourcePoint" />
            <mxPoint x="660" y="60" as="targetPoint" />
          </mxGeometry>
        </mxCell>
        <mxCell id="232" value="" style="edgeStyle=elbowEdgeStyle;elbow=vertical;rounded=0;fontColor=#000000;endArrow=none;endFill=0;strokeWidth=8;strokeColor=#003300;" parent="1" source="2" target="7" edge="1">
          <mxGeometry width="100" height="100" relative="1" as="geometry">
            <mxPoint x="570" y="170" as="sourcePoint" />
            <mxPoint x="670" y="70" as="targetPoint" />
          </mxGeometry>
        </mxCell>
        <mxCell id="rDrohDCk9cXmUTMI032h-234" value="1.1. Proje Ekibi Oluşturma" style="whiteSpace=wrap;rounded=1;shadow=1;fillColor=#dae8fc;strokeColor=#6c8ebf;" parent="1" vertex="1">
          <mxGeometry x="49.99999999999977" y="260.0000000000001" width="120" height="60" as="geometry" />
        </mxCell>
        <mxCell id="rDrohDCk9cXmUTMI032h-235" value="1.2. Proje Fikri ve Alternatiflerinin Belirlenmesi" style="whiteSpace=wrap;rounded=1;shadow=1;fillColor=#dae8fc;strokeColor=#6c8ebf;" parent="1" vertex="1">
          <mxGeometry x="49.99999999999977" y="330.0000000000001" width="120" height="60" as="geometry" />
        </mxCell>
        <mxCell id="TK28OSFd8yPCz7U0a2tl-246" style="edgeStyle=orthogonalEdgeStyle;rounded=0;orthogonalLoop=1;jettySize=auto;html=1;exitX=0;exitY=0.5;exitDx=0;exitDy=0;entryX=0;entryY=0.5;entryDx=0;entryDy=0;shape=link;" edge="1" parent="1" source="rDrohDCk9cXmUTMI032h-236" target="23">
          <mxGeometry relative="1" as="geometry">
            <Array as="points">
              <mxPoint x="40" y="570" />
              <mxPoint x="40" y="650" />
            </Array>
          </mxGeometry>
        </mxCell>
        <mxCell id="TK28OSFd8yPCz7U0a2tl-247" style="edgeStyle=orthogonalEdgeStyle;shape=link;rounded=0;orthogonalLoop=1;jettySize=auto;html=1;exitX=0;exitY=0.5;exitDx=0;exitDy=0;entryX=0;entryY=0.5;entryDx=0;entryDy=0;" edge="1" parent="1" source="rDrohDCk9cXmUTMI032h-236" target="rDrohDCk9cXmUTMI032h-242">
          <mxGeometry relative="1" as="geometry">
            <Array as="points">
              <mxPoint x="40" y="570" />
              <mxPoint x="40" y="720" />
            </Array>
          </mxGeometry>
        </mxCell>
        <mxCell id="rDrohDCk9cXmUTMI032h-236" value="1.5. Ön Fizibilite Çalışması" style="whiteSpace=wrap;rounded=1;shadow=1;fillColor=#dae8fc;strokeColor=#6c8ebf;" parent="1" vertex="1">
          <mxGeometry x="49.99999999999977" y="540.0000000000001" width="120" height="60" as="geometry" />
        </mxCell>
        <mxCell id="rDrohDCk9cXmUTMI032h-237" value="1.4. Proje Beyanı Hazırlama" style="whiteSpace=wrap;rounded=1;shadow=1;fillColor=#dae8fc;strokeColor=#6c8ebf;" parent="1" vertex="1">
          <mxGeometry x="49.99999999999977" y="470.0000000000001" width="120" height="60" as="geometry" />
        </mxCell>
        <mxCell id="rDrohDCk9cXmUTMI032h-238" value="1.3. Proje Konusunun Belirlenmesi" style="whiteSpace=wrap;rounded=1;shadow=1;fillColor=#dae8fc;strokeColor=#6c8ebf;" parent="1" vertex="1">
          <mxGeometry x="49.99999999999977" y="400.0000000000001" width="120" height="60" as="geometry" />
        </mxCell>
        <mxCell id="rDrohDCk9cXmUTMI032h-242" value="1.5.2. Genel Fizibilite Kararının Alınması" style="whiteSpace=wrap;rounded=1;shadow=1;fontStyle=0;fillColor=#ffe6cc;strokeColor=#d79b00;" parent="1" vertex="1">
          <mxGeometry x="79.99999999999994" y="690.0000000000001" width="120" height="60" as="geometry" />
        </mxCell>
        <mxCell id="rDrohDCk9cXmUTMI032h-244" value="2.3. İş Kırılımının Görselleştirilmesi" style="whiteSpace=wrap;rounded=1;fillColor=#dae8fc;strokeColor=#6c8ebf;shadow=1;" parent="1" vertex="1">
          <mxGeometry x="299.9999999999998" y="540.0000000000001" width="120" height="60" as="geometry" />
        </mxCell>
        <mxCell id="TK28OSFd8yPCz7U0a2tl-250" style="edgeStyle=orthogonalEdgeStyle;shape=link;rounded=0;orthogonalLoop=1;jettySize=auto;html=1;exitX=0;exitY=0.5;exitDx=0;exitDy=0;entryX=0;entryY=0.5;entryDx=0;entryDy=0;" edge="1" parent="1" source="rDrohDCk9cXmUTMI032h-245" target="rDrohDCk9cXmUTMI032h-246">
          <mxGeometry relative="1" as="geometry" />
        </mxCell>
        <mxCell id="TK28OSFd8yPCz7U0a2tl-251" style="edgeStyle=orthogonalEdgeStyle;shape=link;rounded=0;orthogonalLoop=1;jettySize=auto;html=1;exitX=0;exitY=0.5;exitDx=0;exitDy=0;entryX=0;entryY=0.5;entryDx=0;entryDy=0;" edge="1" parent="1" source="rDrohDCk9cXmUTMI032h-245" target="rDrohDCk9cXmUTMI032h-247">
          <mxGeometry relative="1" as="geometry" />
        </mxCell>
        <mxCell id="rDrohDCk9cXmUTMI032h-245" value="2.2. Görevlerin Belirlenmesi ve Dağılımlarının Yapılması" style="whiteSpace=wrap;rounded=1;fillColor=#dae8fc;strokeColor=#6c8ebf;shadow=1;" parent="1" vertex="1">
          <mxGeometry x="299.9999999999998" y="330.0000000000001" width="120" height="60" as="geometry" />
        </mxCell>
        <mxCell id="rDrohDCk9cXmUTMI032h-246" value="2.2.1. Görevlerin Belirlenmesi" style="whiteSpace=wrap;rounded=1;fillColor=#ffe6cc;strokeColor=#d79b00;shadow=1;fontStyle=0" parent="1" vertex="1">
          <mxGeometry x="319.99999999999994" y="400.0000000000001" width="120" height="60" as="geometry" />
        </mxCell>
        <mxCell id="rDrohDCk9cXmUTMI032h-247" value="2.2.2. Gerekli Değişiklerin Yapılması ve Onaylanması" style="whiteSpace=wrap;rounded=1;fillColor=#ffe6cc;strokeColor=#d79b00;shadow=1;fontStyle=0" parent="1" vertex="1">
          <mxGeometry x="319.99999999999994" y="470.0000000000001" width="120" height="60" as="geometry" />
        </mxCell>
        <mxCell id="TK28OSFd8yPCz7U0a2tl-254" style="edgeStyle=orthogonalEdgeStyle;shape=link;rounded=0;orthogonalLoop=1;jettySize=auto;html=1;exitX=0;exitY=0.5;exitDx=0;exitDy=0;entryX=0;entryY=0.5;entryDx=0;entryDy=0;" edge="1" parent="1" source="rDrohDCk9cXmUTMI032h-249" target="rDrohDCk9cXmUTMI032h-250">
          <mxGeometry relative="1" as="geometry" />
        </mxCell>
        <mxCell id="rDrohDCk9cXmUTMI032h-249" value="2.4. İş Çizelgelerinin Belirlenmesi" style="whiteSpace=wrap;rounded=1;fillColor=#dae8fc;strokeColor=#6c8ebf;shadow=1;" parent="1" vertex="1">
          <mxGeometry x="299.9999999999998" y="610.0000000000001" width="120" height="60" as="geometry" />
        </mxCell>
        <mxCell id="rDrohDCk9cXmUTMI032h-250" value="2.4.1. Gantt Şeması Oluşturma" style="whiteSpace=wrap;rounded=1;fillColor=#ffe6cc;strokeColor=#d79b00;shadow=1;fontStyle=0" parent="1" vertex="1">
          <mxGeometry x="319.99999999999994" y="680.0000000000001" width="120" height="60" as="geometry" />
        </mxCell>
        <mxCell id="TK28OSFd8yPCz7U0a2tl-256" style="edgeStyle=orthogonalEdgeStyle;shape=link;rounded=0;orthogonalLoop=1;jettySize=auto;html=1;exitX=0;exitY=0.5;exitDx=0;exitDy=0;entryX=0;entryY=0.5;entryDx=0;entryDy=0;" edge="1" parent="1" source="rDrohDCk9cXmUTMI032h-252" target="rDrohDCk9cXmUTMI032h-253">
          <mxGeometry relative="1" as="geometry" />
        </mxCell>
        <mxCell id="TK28OSFd8yPCz7U0a2tl-258" style="edgeStyle=orthogonalEdgeStyle;shape=link;rounded=0;orthogonalLoop=1;jettySize=auto;html=1;exitX=0;exitY=0.5;exitDx=0;exitDy=0;entryX=0;entryY=0.5;entryDx=0;entryDy=0;" edge="1" parent="1" source="rDrohDCk9cXmUTMI032h-252" target="rDrohDCk9cXmUTMI032h-255">
          <mxGeometry relative="1" as="geometry" />
        </mxCell>
        <mxCell id="rDrohDCk9cXmUTMI032h-252" value="3.1. Gereksinim Analizi" style="whiteSpace=wrap;rounded=1;fillColor=#dae8fc;strokeColor=#6c8ebf;shadow=1;" parent="1" vertex="1">
          <mxGeometry x="539.9999999999998" y="260.0000000000001" width="120" height="60" as="geometry" />
        </mxCell>
        <mxCell id="TK28OSFd8yPCz7U0a2tl-257" style="edgeStyle=orthogonalEdgeStyle;shape=link;rounded=0;orthogonalLoop=1;jettySize=auto;html=1;exitX=0;exitY=0.5;exitDx=0;exitDy=0;entryX=0;entryY=0.5;entryDx=0;entryDy=0;" edge="1" parent="1" source="rDrohDCk9cXmUTMI032h-253" target="rDrohDCk9cXmUTMI032h-254">
          <mxGeometry relative="1" as="geometry" />
        </mxCell>
        <mxCell id="rDrohDCk9cXmUTMI032h-253" value="3.1.1. Piyasayı Analiz Etme" style="whiteSpace=wrap;rounded=1;fillColor=#ffe6cc;strokeColor=#d79b00;shadow=1;fontStyle=0" parent="1" vertex="1">
          <mxGeometry x="560" y="330.0000000000001" width="120" height="60" as="geometry" />
        </mxCell>
        <mxCell id="rDrohDCk9cXmUTMI032h-254" value="3.1.1.1. Hedef Kitlenin Belirlenmesi" style="whiteSpace=wrap;rounded=1;fillColor=#fff2cc;strokeColor=#d6b656;shadow=1;fontStyle=0" parent="1" vertex="1">
          <mxGeometry x="585" y="403.0000000000001" width="120" height="60" as="geometry" />
        </mxCell>
        <mxCell id="rDrohDCk9cXmUTMI032h-255" value="3.1.2. Gereksinim Listesi Oluşturma" style="whiteSpace=wrap;rounded=1;fillColor=#ffe6cc;strokeColor=#d79b00;shadow=1;fontStyle=0" parent="1" vertex="1">
          <mxGeometry x="560" y="480.0000000000001" width="120" height="60" as="geometry" />
        </mxCell>
        <mxCell id="TK28OSFd8yPCz7U0a2tl-260" style="edgeStyle=orthogonalEdgeStyle;shape=link;rounded=0;orthogonalLoop=1;jettySize=auto;html=1;exitX=0;exitY=0.5;exitDx=0;exitDy=0;entryX=0;entryY=0.5;entryDx=0;entryDy=0;" edge="1" parent="1" source="rDrohDCk9cXmUTMI032h-256" target="rDrohDCk9cXmUTMI032h-257">
          <mxGeometry relative="1" as="geometry" />
        </mxCell>
        <mxCell id="TK28OSFd8yPCz7U0a2tl-261" style="edgeStyle=orthogonalEdgeStyle;shape=link;rounded=0;orthogonalLoop=1;jettySize=auto;html=1;exitX=0;exitY=0.5;exitDx=0;exitDy=0;entryX=0;entryY=0.5;entryDx=0;entryDy=0;" edge="1" parent="1" source="rDrohDCk9cXmUTMI032h-256" target="rDrohDCk9cXmUTMI032h-258">
          <mxGeometry relative="1" as="geometry" />
        </mxCell>
        <mxCell id="rDrohDCk9cXmUTMI032h-256" value="3.2. Süreç Modelleme" style="whiteSpace=wrap;rounded=1;fillColor=#dae8fc;strokeColor=#6c8ebf;shadow=1;" parent="1" vertex="1">
          <mxGeometry x="539.9999999999998" y="550.0000000000001" width="120" height="60" as="geometry" />
        </mxCell>
        <mxCell id="rDrohDCk9cXmUTMI032h-257" value="3.2.1. Gereksinim Listesi Analizi" style="whiteSpace=wrap;rounded=1;fillColor=#ffe6cc;strokeColor=#d79b00;shadow=1;fontStyle=0" parent="1" vertex="1">
          <mxGeometry x="560" y="620.0000000000001" width="120" height="60" as="geometry" />
        </mxCell>
        <mxCell id="TK28OSFd8yPCz7U0a2tl-262" style="edgeStyle=orthogonalEdgeStyle;shape=link;rounded=0;orthogonalLoop=1;jettySize=auto;html=1;exitX=0;exitY=0.5;exitDx=0;exitDy=0;entryX=0;entryY=0.5;entryDx=0;entryDy=0;" edge="1" parent="1" source="rDrohDCk9cXmUTMI032h-258" target="rDrohDCk9cXmUTMI032h-259">
          <mxGeometry relative="1" as="geometry" />
        </mxCell>
        <mxCell id="rDrohDCk9cXmUTMI032h-258" value="3.2.2. Veri Akış Diyagramlarının Hazırlanması" style="whiteSpace=wrap;rounded=1;fillColor=#ffe6cc;strokeColor=#d79b00;shadow=1;fontStyle=0" parent="1" vertex="1">
          <mxGeometry x="560" y="690.0000000000001" width="120" height="60" as="geometry" />
        </mxCell>
        <mxCell id="rDrohDCk9cXmUTMI032h-259" value="3.2.2.1. Bağlam Diyagramı" style="whiteSpace=wrap;rounded=1;fillColor=#fff2cc;strokeColor=#d6b656;shadow=1;fontStyle=0" parent="1" vertex="1">
          <mxGeometry x="585" y="760.0000000000001" width="120" height="60" as="geometry" />
        </mxCell>
        <mxCell id="TK28OSFd8yPCz7U0a2tl-264" style="edgeStyle=orthogonalEdgeStyle;shape=link;rounded=0;orthogonalLoop=1;jettySize=auto;html=1;exitX=0;exitY=0.5;exitDx=0;exitDy=0;entryX=0;entryY=0.5;entryDx=0;entryDy=0;" edge="1" parent="1" source="rDrohDCk9cXmUTMI032h-260" target="rDrohDCk9cXmUTMI032h-261">
          <mxGeometry relative="1" as="geometry" />
        </mxCell>
        <mxCell id="TK28OSFd8yPCz7U0a2tl-265" style="edgeStyle=orthogonalEdgeStyle;shape=link;rounded=0;orthogonalLoop=1;jettySize=auto;html=1;exitX=0;exitY=0.5;exitDx=0;exitDy=0;entryX=0;entryY=0.5;entryDx=0;entryDy=0;" edge="1" parent="1" source="rDrohDCk9cXmUTMI032h-260" target="rDrohDCk9cXmUTMI032h-262">
          <mxGeometry relative="1" as="geometry" />
        </mxCell>
        <mxCell id="rDrohDCk9cXmUTMI032h-260" value="3.3. Veri Modelleme" style="whiteSpace=wrap;rounded=1;fillColor=#dae8fc;strokeColor=#6c8ebf;shadow=1;" parent="1" vertex="1">
          <mxGeometry x="539.9999999999998" y="830.0000000000001" width="120" height="60" as="geometry" />
        </mxCell>
        <mxCell id="rDrohDCk9cXmUTMI032h-261" value="3.3.1. Veri Akış Diyagramlarının İncelenmesi" style="whiteSpace=wrap;rounded=1;fillColor=#ffe6cc;strokeColor=#d79b00;shadow=1;fontStyle=0" parent="1" vertex="1">
          <mxGeometry x="560" y="900.0000000000001" width="120" height="60" as="geometry" />
        </mxCell>
        <mxCell id="rDrohDCk9cXmUTMI032h-262" value="3.3.2. Veri Sözlüklerinin Oluşturulması" style="whiteSpace=wrap;rounded=1;fillColor=#ffe6cc;strokeColor=#d79b00;shadow=1;fontStyle=0" parent="1" vertex="1">
          <mxGeometry x="560" y="970.0000000000001" width="120" height="60" as="geometry" />
        </mxCell>
        <mxCell id="TK28OSFd8yPCz7U0a2tl-267" style="edgeStyle=orthogonalEdgeStyle;shape=link;rounded=0;orthogonalLoop=1;jettySize=auto;html=1;exitX=0;exitY=0.5;exitDx=0;exitDy=0;entryX=0;entryY=0.5;entryDx=0;entryDy=0;" edge="1" parent="1" source="rDrohDCk9cXmUTMI032h-263" target="rDrohDCk9cXmUTMI032h-264">
          <mxGeometry relative="1" as="geometry" />
        </mxCell>
        <mxCell id="TK28OSFd8yPCz7U0a2tl-268" style="edgeStyle=orthogonalEdgeStyle;shape=link;rounded=0;orthogonalLoop=1;jettySize=auto;html=1;exitX=0;exitY=0.5;exitDx=0;exitDy=0;entryX=0;entryY=0.5;entryDx=0;entryDy=0;" edge="1" parent="1" source="rDrohDCk9cXmUTMI032h-263" target="rDrohDCk9cXmUTMI032h-265">
          <mxGeometry relative="1" as="geometry" />
        </mxCell>
        <mxCell id="TK28OSFd8yPCz7U0a2tl-269" style="edgeStyle=orthogonalEdgeStyle;shape=link;rounded=0;orthogonalLoop=1;jettySize=auto;html=1;exitX=0;exitY=0.5;exitDx=0;exitDy=0;entryX=0;entryY=0.5;entryDx=0;entryDy=0;" edge="1" parent="1" source="rDrohDCk9cXmUTMI032h-263" target="rDrohDCk9cXmUTMI032h-266">
          <mxGeometry relative="1" as="geometry" />
        </mxCell>
        <mxCell id="rDrohDCk9cXmUTMI032h-263" value="3.4. Veri Modelleme" style="whiteSpace=wrap;rounded=1;fillColor=#dae8fc;strokeColor=#6c8ebf;shadow=1;" parent="1" vertex="1">
          <mxGeometry x="549.9999999999998" y="1040" width="120" height="60" as="geometry" />
        </mxCell>
        <mxCell id="rDrohDCk9cXmUTMI032h-264" value="3.4.1. Sözde Kod Tasarımı" style="whiteSpace=wrap;rounded=1;fillColor=#ffe6cc;strokeColor=#d79b00;shadow=1;fontStyle=0" parent="1" vertex="1">
          <mxGeometry x="570" y="1110" width="120" height="60" as="geometry" />
        </mxCell>
        <mxCell id="rDrohDCk9cXmUTMI032h-265" value="3.4.2. Karar Tablosu Tasarımı" style="whiteSpace=wrap;rounded=1;fillColor=#ffe6cc;strokeColor=#d79b00;shadow=1;fontStyle=0" parent="1" vertex="1">
          <mxGeometry x="570" y="1180" width="120" height="60" as="geometry" />
        </mxCell>
        <mxCell id="TK28OSFd8yPCz7U0a2tl-270" style="edgeStyle=orthogonalEdgeStyle;shape=link;rounded=0;orthogonalLoop=1;jettySize=auto;html=1;exitX=0;exitY=0.5;exitDx=0;exitDy=0;entryX=0;entryY=0.5;entryDx=0;entryDy=0;" edge="1" parent="1" source="rDrohDCk9cXmUTMI032h-266" target="rDrohDCk9cXmUTMI032h-267">
          <mxGeometry relative="1" as="geometry" />
        </mxCell>
        <mxCell id="rDrohDCk9cXmUTMI032h-266" value="3.4.3. Karar Ağacı Tasarımı" style="whiteSpace=wrap;rounded=1;fillColor=#ffe6cc;strokeColor=#d79b00;shadow=1;fontStyle=0" parent="1" vertex="1">
          <mxGeometry x="570" y="1250" width="120" height="60" as="geometry" />
        </mxCell>
        <mxCell id="rDrohDCk9cXmUTMI032h-267" value="3.4.3.1. Alternatif Kararları Seçme" style="whiteSpace=wrap;rounded=1;fillColor=#fff2cc;strokeColor=#d6b656;shadow=1;fontStyle=0" parent="1" vertex="1">
          <mxGeometry x="595" y="1320" width="120" height="60" as="geometry" />
        </mxCell>
        <mxCell id="TK28OSFd8yPCz7U0a2tl-271" style="edgeStyle=orthogonalEdgeStyle;shape=link;rounded=0;orthogonalLoop=1;jettySize=auto;html=1;exitX=0;exitY=0.5;exitDx=0;exitDy=0;entryX=0;entryY=0.5;entryDx=0;entryDy=0;" edge="1" parent="1" source="rDrohDCk9cXmUTMI032h-268" target="rDrohDCk9cXmUTMI032h-269">
          <mxGeometry relative="1" as="geometry" />
        </mxCell>
        <mxCell id="TK28OSFd8yPCz7U0a2tl-272" style="edgeStyle=orthogonalEdgeStyle;shape=link;rounded=0;orthogonalLoop=1;jettySize=auto;html=1;exitX=0;exitY=0.5;exitDx=0;exitDy=0;entryX=0;entryY=0.5;entryDx=0;entryDy=0;" edge="1" parent="1" source="rDrohDCk9cXmUTMI032h-268" target="rDrohDCk9cXmUTMI032h-270">
          <mxGeometry relative="1" as="geometry" />
        </mxCell>
        <mxCell id="TK28OSFd8yPCz7U0a2tl-278" style="edgeStyle=orthogonalEdgeStyle;shape=link;rounded=0;orthogonalLoop=1;jettySize=auto;html=1;exitX=0;exitY=0.5;exitDx=0;exitDy=0;entryX=0;entryY=0.5;entryDx=0;entryDy=0;" edge="1" parent="1" source="rDrohDCk9cXmUTMI032h-268" target="rDrohDCk9cXmUTMI032h-280">
          <mxGeometry relative="1" as="geometry" />
        </mxCell>
        <mxCell id="TK28OSFd8yPCz7U0a2tl-279" style="edgeStyle=orthogonalEdgeStyle;shape=link;rounded=0;orthogonalLoop=1;jettySize=auto;html=1;exitX=0;exitY=0.5;exitDx=0;exitDy=0;entryX=0;entryY=0.5;entryDx=0;entryDy=0;" edge="1" parent="1" source="rDrohDCk9cXmUTMI032h-268" target="rDrohDCk9cXmUTMI032h-281">
          <mxGeometry relative="1" as="geometry" />
        </mxCell>
        <mxCell id="rDrohDCk9cXmUTMI032h-268" value="4. Tasarım Aşaması" style="whiteSpace=wrap;rounded=1;fillColor=#d5e8d4;strokeColor=#82b366;shadow=1;fontStyle=1;fontSize=14" parent="1" vertex="1">
          <mxGeometry x="760" y="179.9999999999998" width="140" height="60" as="geometry" />
        </mxCell>
        <mxCell id="rDrohDCk9cXmUTMI032h-269" value="4.1. Uygulama Tasarımı" style="whiteSpace=wrap;rounded=1;fillColor=#dae8fc;strokeColor=#6c8ebf;shadow=1;" parent="1" vertex="1">
          <mxGeometry x="779.9999999999998" y="260.0000000000001" width="120" height="60" as="geometry" />
        </mxCell>
        <mxCell id="TK28OSFd8yPCz7U0a2tl-273" style="edgeStyle=orthogonalEdgeStyle;shape=link;rounded=0;orthogonalLoop=1;jettySize=auto;html=1;exitX=0;exitY=0.5;exitDx=0;exitDy=0;entryX=0;entryY=0.5;entryDx=0;entryDy=0;" edge="1" parent="1" source="rDrohDCk9cXmUTMI032h-270" target="rDrohDCk9cXmUTMI032h-276">
          <mxGeometry relative="1" as="geometry" />
        </mxCell>
        <mxCell id="TK28OSFd8yPCz7U0a2tl-276" style="edgeStyle=orthogonalEdgeStyle;shape=link;rounded=0;orthogonalLoop=1;jettySize=auto;html=1;exitX=0;exitY=0.5;exitDx=0;exitDy=0;entryX=0;entryY=0.5;entryDx=0;entryDy=0;" edge="1" parent="1" source="rDrohDCk9cXmUTMI032h-270" target="rDrohDCk9cXmUTMI032h-278">
          <mxGeometry relative="1" as="geometry" />
        </mxCell>
        <mxCell id="TK28OSFd8yPCz7U0a2tl-277" style="edgeStyle=orthogonalEdgeStyle;shape=link;rounded=0;orthogonalLoop=1;jettySize=auto;html=1;exitX=0;exitY=0.5;exitDx=0;exitDy=0;entryX=0;entryY=0.5;entryDx=0;entryDy=0;" edge="1" parent="1" source="rDrohDCk9cXmUTMI032h-270" target="rDrohDCk9cXmUTMI032h-279">
          <mxGeometry relative="1" as="geometry" />
        </mxCell>
        <mxCell id="rDrohDCk9cXmUTMI032h-270" value="4.2. İnsan Bilgisayar Etkileşimi " style="whiteSpace=wrap;rounded=1;fillColor=#dae8fc;strokeColor=#6c8ebf;shadow=1;" parent="1" vertex="1">
          <mxGeometry x="779.9999999999998" y="330.0000000000001" width="120" height="60" as="geometry" />
        </mxCell>
        <mxCell id="rDrohDCk9cXmUTMI032h-274" value="" style="edgeStyle=elbowEdgeStyle;elbow=vertical;rounded=0;fontColor=#000000;endArrow=none;endFill=0;strokeWidth=8;strokeColor=#003300;entryX=0.5;entryY=0;entryDx=0;entryDy=0;exitX=0.5;exitY=1;exitDx=0;exitDy=0;" parent="1" source="2" target="rDrohDCk9cXmUTMI032h-268" edge="1">
          <mxGeometry width="100" height="100" relative="1" as="geometry">
            <mxPoint x="1169" y="110" as="sourcePoint" />
            <mxPoint x="589" y="180" as="targetPoint" />
          </mxGeometry>
        </mxCell>
        <mxCell id="TK28OSFd8yPCz7U0a2tl-274" style="edgeStyle=orthogonalEdgeStyle;shape=link;rounded=0;orthogonalLoop=1;jettySize=auto;html=1;exitX=0;exitY=0.5;exitDx=0;exitDy=0;entryX=0;entryY=0.5;entryDx=0;entryDy=0;" edge="1" parent="1" source="rDrohDCk9cXmUTMI032h-276" target="rDrohDCk9cXmUTMI032h-277">
          <mxGeometry relative="1" as="geometry" />
        </mxCell>
        <mxCell id="rDrohDCk9cXmUTMI032h-276" value="4.2.1. Sistem ve Gerçek Dünyanın Uyumu Testi" style="whiteSpace=wrap;rounded=1;fillColor=#ffe6cc;strokeColor=#d79b00;shadow=1;fontStyle=0" parent="1" vertex="1">
          <mxGeometry x="800" y="400.0000000000001" width="120" height="60" as="geometry" />
        </mxCell>
        <mxCell id="rDrohDCk9cXmUTMI032h-277" value="4.2.1.1. Uyum Testinin Değerlendirilmesi ve Analizi" style="whiteSpace=wrap;rounded=1;fillColor=#fff2cc;strokeColor=#d6b656;shadow=1;fontStyle=0" parent="1" vertex="1">
          <mxGeometry x="825" y="473.0000000000001" width="120" height="60" as="geometry" />
        </mxCell>
        <mxCell id="rDrohDCk9cXmUTMI032h-278" value="4.2.2. Kullanıcı Kontrolü ve Özgürlüğü Analizi" style="whiteSpace=wrap;rounded=1;fillColor=#ffe6cc;strokeColor=#d79b00;shadow=1;fontStyle=0" parent="1" vertex="1">
          <mxGeometry x="800" y="540.0000000000001" width="120" height="60" as="geometry" />
        </mxCell>
        <mxCell id="rDrohDCk9cXmUTMI032h-279" value="4.2.3. Kullanıcı ile Zevkli ve Riayetli Bir İletişim" style="whiteSpace=wrap;rounded=1;fillColor=#ffe6cc;strokeColor=#d79b00;shadow=1;fontStyle=0" parent="1" vertex="1">
          <mxGeometry x="800" y="610.0000000000001" width="120" height="60" as="geometry" />
        </mxCell>
        <mxCell id="rDrohDCk9cXmUTMI032h-280" value="4.3. Arayüz Tasarımı" style="whiteSpace=wrap;rounded=1;fillColor=#dae8fc;strokeColor=#6c8ebf;shadow=1;" parent="1" vertex="1">
          <mxGeometry x="779.9999999999998" y="680.0000000000001" width="120" height="60" as="geometry" />
        </mxCell>
        <mxCell id="TK28OSFd8yPCz7U0a2tl-280" style="edgeStyle=orthogonalEdgeStyle;shape=link;rounded=0;orthogonalLoop=1;jettySize=auto;html=1;exitX=0;exitY=0.5;exitDx=0;exitDy=0;entryX=0;entryY=0.5;entryDx=0;entryDy=0;" edge="1" parent="1" source="rDrohDCk9cXmUTMI032h-281" target="rDrohDCk9cXmUTMI032h-282">
          <mxGeometry relative="1" as="geometry" />
        </mxCell>
        <mxCell id="TK28OSFd8yPCz7U0a2tl-281" style="edgeStyle=orthogonalEdgeStyle;shape=link;rounded=0;orthogonalLoop=1;jettySize=auto;html=1;exitX=0;exitY=0.5;exitDx=0;exitDy=0;entryX=0;entryY=0.5;entryDx=0;entryDy=0;" edge="1" parent="1" source="rDrohDCk9cXmUTMI032h-281" target="rDrohDCk9cXmUTMI032h-283">
          <mxGeometry relative="1" as="geometry" />
        </mxCell>
        <mxCell id="rDrohDCk9cXmUTMI032h-281" value="4.4. Veri Tabanı Tasarımı" style="whiteSpace=wrap;rounded=1;fillColor=#dae8fc;strokeColor=#6c8ebf;shadow=1;" parent="1" vertex="1">
          <mxGeometry x="779.9999999999998" y="750.0000000000001" width="120" height="60" as="geometry" />
        </mxCell>
        <mxCell id="rDrohDCk9cXmUTMI032h-282" value="4.4.1. Gerekli Bilgileri Bulma ve Düzenleme" style="whiteSpace=wrap;rounded=1;fillColor=#ffe6cc;strokeColor=#d79b00;shadow=1;fontStyle=0" parent="1" vertex="1">
          <mxGeometry x="800" y="820.0000000000001" width="120" height="60" as="geometry" />
        </mxCell>
        <mxCell id="rDrohDCk9cXmUTMI032h-283" value="4.4.2. Bilgileri Tablolara Bölme" style="whiteSpace=wrap;rounded=1;fillColor=#ffe6cc;strokeColor=#d79b00;shadow=1;fontStyle=0" parent="1" vertex="1">
          <mxGeometry x="800" y="890.0000000000001" width="120" height="60" as="geometry" />
        </mxCell>
        <mxCell id="TK28OSFd8yPCz7U0a2tl-283" style="edgeStyle=orthogonalEdgeStyle;shape=link;rounded=0;orthogonalLoop=1;jettySize=auto;html=1;exitX=0;exitY=0.5;exitDx=0;exitDy=0;entryX=0;entryY=0.5;entryDx=0;entryDy=0;" edge="1" parent="1" source="rDrohDCk9cXmUTMI032h-284" target="rDrohDCk9cXmUTMI032h-293">
          <mxGeometry relative="1" as="geometry" />
        </mxCell>
        <mxCell id="rDrohDCk9cXmUTMI032h-284" value="5.1. Prototip Uygulamayı Test Etme" style="whiteSpace=wrap;rounded=1;fillColor=#dae8fc;strokeColor=#6c8ebf;shadow=1;" parent="1" vertex="1">
          <mxGeometry x="1019.9999999999998" y="260" width="120" height="60" as="geometry" />
        </mxCell>
        <mxCell id="TK28OSFd8yPCz7U0a2tl-282" style="edgeStyle=orthogonalEdgeStyle;shape=link;rounded=0;orthogonalLoop=1;jettySize=auto;html=1;exitX=0;exitY=0.5;exitDx=0;exitDy=0;entryX=0;entryY=0.5;entryDx=0;entryDy=0;" edge="1" parent="1" source="rDrohDCk9cXmUTMI032h-288" target="rDrohDCk9cXmUTMI032h-284">
          <mxGeometry relative="1" as="geometry" />
        </mxCell>
        <mxCell id="TK28OSFd8yPCz7U0a2tl-284" style="edgeStyle=orthogonalEdgeStyle;shape=link;rounded=0;orthogonalLoop=1;jettySize=auto;html=1;exitX=0;exitY=0.5;exitDx=0;exitDy=0;entryX=0;entryY=0.5;entryDx=0;entryDy=0;" edge="1" parent="1" source="rDrohDCk9cXmUTMI032h-288" target="rDrohDCk9cXmUTMI032h-291">
          <mxGeometry relative="1" as="geometry" />
        </mxCell>
        <mxCell id="TK28OSFd8yPCz7U0a2tl-285" style="edgeStyle=orthogonalEdgeStyle;shape=link;rounded=0;orthogonalLoop=1;jettySize=auto;html=1;exitX=0;exitY=0.5;exitDx=0;exitDy=0;entryX=0;entryY=0.5;entryDx=0;entryDy=0;" edge="1" parent="1" source="rDrohDCk9cXmUTMI032h-288" target="rDrohDCk9cXmUTMI032h-292">
          <mxGeometry relative="1" as="geometry" />
        </mxCell>
        <mxCell id="rDrohDCk9cXmUTMI032h-288" value="5. Prototip Uygulama" style="whiteSpace=wrap;rounded=1;fillColor=#d5e8d4;strokeColor=#82b366;shadow=1;fontStyle=1;fontSize=14" parent="1" vertex="1">
          <mxGeometry x="1000" y="179.9999999999998" width="140" height="60" as="geometry" />
        </mxCell>
        <mxCell id="rDrohDCk9cXmUTMI032h-291" value="5.2. Uygulama Üzerinde İyileştirmeler Yapma" style="whiteSpace=wrap;rounded=1;fillColor=#dae8fc;strokeColor=#6c8ebf;shadow=1;" parent="1" vertex="1">
          <mxGeometry x="1019.9999999999998" y="400" width="120" height="60" as="geometry" />
        </mxCell>
        <mxCell id="rDrohDCk9cXmUTMI032h-292" value="5.3. Uygulamayı Piyasaya Hazır Hale Getirmek" style="whiteSpace=wrap;rounded=1;fillColor=#dae8fc;strokeColor=#6c8ebf;shadow=1;" parent="1" vertex="1">
          <mxGeometry x="1019.9999999999998" y="470" width="120" height="60" as="geometry" />
        </mxCell>
        <mxCell id="rDrohDCk9cXmUTMI032h-293" value="5.1.1.Test Sonuçlarını Analiz Etme" style="whiteSpace=wrap;rounded=1;fillColor=#ffe6cc;strokeColor=#d79b00;shadow=1;fontStyle=0" parent="1" vertex="1">
          <mxGeometry x="1040" y="330.0000000000001" width="120" height="60" as="geometry" />
        </mxCell>
        <mxCell id="rDrohDCk9cXmUTMI032h-294" value="" style="edgeStyle=elbowEdgeStyle;elbow=vertical;rounded=0;fontColor=#000000;endArrow=none;endFill=0;strokeWidth=8;strokeColor=#003300;entryX=0.5;entryY=0;entryDx=0;entryDy=0;exitX=0.5;exitY=1;exitDx=0;exitDy=0;" parent="1" source="2" target="rDrohDCk9cXmUTMI032h-288" edge="1">
          <mxGeometry width="100" height="100" relative="1" as="geometry">
            <mxPoint x="980" y="100" as="sourcePoint" />
            <mxPoint x="830" y="180" as="targetPoint" />
          </mxGeometry>
        </mxCell>
        <mxCell id="TK28OSFd8yPCz7U0a2tl-287" style="edgeStyle=orthogonalEdgeStyle;shape=link;rounded=0;orthogonalLoop=1;jettySize=auto;html=1;exitX=0;exitY=0.5;exitDx=0;exitDy=0;entryX=0;entryY=0.5;entryDx=0;entryDy=0;" edge="1" parent="1" source="rDrohDCk9cXmUTMI032h-295" target="rDrohDCk9cXmUTMI032h-297">
          <mxGeometry relative="1" as="geometry" />
        </mxCell>
        <mxCell id="TK28OSFd8yPCz7U0a2tl-288" style="edgeStyle=orthogonalEdgeStyle;shape=link;rounded=0;orthogonalLoop=1;jettySize=auto;html=1;exitX=0;exitY=0.5;exitDx=0;exitDy=0;entryX=0;entryY=0.5;entryDx=0;entryDy=0;" edge="1" parent="1" source="rDrohDCk9cXmUTMI032h-295" target="rDrohDCk9cXmUTMI032h-299">
          <mxGeometry relative="1" as="geometry" />
        </mxCell>
        <mxCell id="TK28OSFd8yPCz7U0a2tl-289" style="edgeStyle=orthogonalEdgeStyle;shape=link;rounded=0;orthogonalLoop=1;jettySize=auto;html=1;exitX=0;exitY=0.5;exitDx=0;exitDy=0;entryX=0;entryY=0.5;entryDx=0;entryDy=0;" edge="1" parent="1" source="rDrohDCk9cXmUTMI032h-295" target="rDrohDCk9cXmUTMI032h-300">
          <mxGeometry relative="1" as="geometry" />
        </mxCell>
        <mxCell id="rDrohDCk9cXmUTMI032h-295" value="6.1. Proje Dosyası Hazırlama" style="whiteSpace=wrap;rounded=1;fillColor=#dae8fc;strokeColor=#6c8ebf;shadow=1;" parent="1" vertex="1">
          <mxGeometry x="1259.9999999999998" y="260" width="120" height="60" as="geometry" />
        </mxCell>
        <mxCell id="TK28OSFd8yPCz7U0a2tl-286" style="edgeStyle=orthogonalEdgeStyle;shape=link;rounded=0;orthogonalLoop=1;jettySize=auto;html=1;exitX=0;exitY=0.5;exitDx=0;exitDy=0;entryX=0;entryY=0.5;entryDx=0;entryDy=0;" edge="1" parent="1" source="rDrohDCk9cXmUTMI032h-296" target="rDrohDCk9cXmUTMI032h-295">
          <mxGeometry relative="1" as="geometry" />
        </mxCell>
        <mxCell id="TK28OSFd8yPCz7U0a2tl-290" style="edgeStyle=orthogonalEdgeStyle;shape=link;rounded=0;orthogonalLoop=1;jettySize=auto;html=1;exitX=0;exitY=0.5;exitDx=0;exitDy=0;entryX=0;entryY=0.5;entryDx=0;entryDy=0;" edge="1" parent="1" source="rDrohDCk9cXmUTMI032h-296" target="rDrohDCk9cXmUTMI032h-301">
          <mxGeometry relative="1" as="geometry" />
        </mxCell>
        <mxCell id="rDrohDCk9cXmUTMI032h-296" value="6. Proje Sonlandırma" style="whiteSpace=wrap;rounded=1;fillColor=#d5e8d4;strokeColor=#82b366;shadow=1;fontStyle=1;fontSize=14" parent="1" vertex="1">
          <mxGeometry x="1240" y="179.9999999999998" width="140" height="60" as="geometry" />
        </mxCell>
        <mxCell id="rDrohDCk9cXmUTMI032h-297" value="6.1.1.İçindekiler Kısmını Oluşturma" style="whiteSpace=wrap;rounded=1;fillColor=#ffe6cc;strokeColor=#d79b00;shadow=1;fontStyle=0" parent="1" vertex="1">
          <mxGeometry x="1280" y="330.0000000000001" width="120" height="60" as="geometry" />
        </mxCell>
        <mxCell id="rDrohDCk9cXmUTMI032h-298" value="" style="edgeStyle=elbowEdgeStyle;elbow=vertical;rounded=0;fontColor=#000000;endArrow=none;endFill=0;strokeWidth=8;strokeColor=#003300;entryX=0.5;entryY=0;entryDx=0;entryDy=0;exitX=0.5;exitY=1;exitDx=0;exitDy=0;" parent="1" source="2" target="rDrohDCk9cXmUTMI032h-296" edge="1">
          <mxGeometry width="100" height="100" relative="1" as="geometry">
            <mxPoint x="830" y="100" as="sourcePoint" />
            <mxPoint x="1070" y="180" as="targetPoint" />
          </mxGeometry>
        </mxCell>
        <mxCell id="rDrohDCk9cXmUTMI032h-299" value="6.1.2.Doküman Kısmını Güncelleme" style="whiteSpace=wrap;rounded=1;fillColor=#ffe6cc;strokeColor=#d79b00;shadow=1;fontStyle=0" parent="1" vertex="1">
          <mxGeometry x="1280" y="400.0000000000001" width="120" height="60" as="geometry" />
        </mxCell>
        <mxCell id="rDrohDCk9cXmUTMI032h-300" value="6.1.3.Doküman Birleştirme" style="whiteSpace=wrap;rounded=1;fillColor=#ffe6cc;strokeColor=#d79b00;shadow=1;fontStyle=0" parent="1" vertex="1">
          <mxGeometry x="1280" y="470.0000000000001" width="120" height="60" as="geometry" />
        </mxCell>
        <mxCell id="rDrohDCk9cXmUTMI032h-301" value="6.2.Uygulamayı Kullanıcıya Sunma" style="whiteSpace=wrap;rounded=1;fillColor=#dae8fc;strokeColor=#6c8ebf;shadow=1;" parent="1" vertex="1">
          <mxGeometry x="1259.9999999999998" y="540" width="120" height="60" as="geometry" />
        </mxCell>
      </root>
    </mxGraphModel>
  </diagram>
</mxfile>
